# xmcd
#
# Track frame offsets: 
#        182
#        18655
#        37277
#        55990
#
# Disc length: 988 seconds
#
# Revision: 1
# Processed by: cddbd v1.5.2PL0 Copyright (c) Steve Scherf et al.
# Submitted via: ExactAudioCopy v0.99pb5
#
DISCID=3503da04
DTITLE=Red Eye - Ooh La La [CDS)
DYEAR=1996
DGENRE=Hip-Hop
TTITLE0=Ooh La La (Clean Radio Mix)
TTITLE1=Ooh La La (Chilled Out Mix)
TTITLE2=Ooh La La
TTITLE3=Ooh La La (Instr.)
EXTD=
EXTT0=
EXTT1=
EXTT2=
EXTT3=
PLAYORDER=
